<svg xmlns="http://www.w3.org/2000/svg" enable-background="new 0 0 66 66" viewBox="0 0 66 66"><path d="M45.13966,29.72232l-0.40997,0.41998c-2.30585-0.33969-4.35349-1.38346-5.94-2.96997
		c-1.62197-1.62197-2.6288-3.68718-2.96002-5.84003l0.45001-0.45001l6.77002,2.10004
		C43.08996,23.11218,45.27926,30.17253,45.13966,29.72232z"/><path d="M58.33038 14.41636l3.44-10.14996-10.14996 3.44-8.59003-6.41003.14001 10.72003-8.76001 6.19 3.46997 1.07996 6.77002 2.10004 2.09003 6.73999 1.08997 3.5 6.19-8.76001 10.72004.14001L58.33038 14.41636zM28.59968 45.47232c.14001.14001.22003.33002.22003.53003 0 .19-.08002.37994-.22003.52997l-3.28998 3.28003c-.26001.27997-.75.31-1.06 0l-8.10004-8.10004c-.14996-.14001-.21997-.33002-.21997-.52997 0-.20001.07001-.39001.21997-.53003l3.29004-3.28998c.28998-.29999.75995-.29999 1.06 0l1.38995 1.39001L35.12971 25.5223c.56 1.10999 1.31995 2.15002 2.25 3.07001.91998.91998 1.95996 1.67999 3.06 2.23999L27.20967 44.07229 28.59968 45.47232zM21.97968 50.37234c-2.02002 2.02997-6.01001 6.03998-13.73999 13.81-.67999.67999-1.84003.70996-2.54999 0L1.77967 60.2723c-.70996-.70996-.67999-1.87.01001-2.54999.53003-.52997 9.69-9.64001 13.79999-13.73999L21.97968 50.37234z"/></svg>